<?xml version="1.0" encoding="UTF-8" standalone="no"?>
<!DOCTYPE svg PUBLIC "-//W3C//DTD SVG 1.1//EN" "http://www.w3.org/Graphics/SVG/1.1/DTD/svg11.dtd">
<!-- Created with Vectornator (http://vectornator.io/) -->
<svg height="100%" stroke-miterlimit="10" style="fill-rule:nonzero;clip-rule:evenodd;stroke-linecap:round;stroke-linejoin:round;" version="1.1" viewBox="0 0 32 32" width="100%" xml:space="preserve" xmlns="http://www.w3.org/2000/svg" xmlns:xlink="http://www.w3.org/1999/xlink">
<defs/>
<g id="Layer-3">
<path d="M13.9433 1.51809L11.2818 3.06982L5.23552 6.59501L5.23552 9.97964L11.0407 6.59501L11.0407 9.97964L5.23552 13.3642L5.23552 16.7489L11.0407 13.3642L11.0407 16.7489L5.23552 20.1335L5.23552 23.5181L13.9433 18.4412L13.9433 1.51809Z" fill="#8a8b8c" fill-rule="nonzero" opacity="1" stroke="#8a8b8c" stroke-linecap="butt" stroke-linejoin="round" stroke-width="1"/>
<path d="M17 1.51809L17 11.6197L22.7753 14.9869L22.7753 18.3541L17 14.9869L17 18.3541L25.6798 23.5181L25.6643 6.56891L17 1.51809ZM19.14 5.75536L21.168 6.9383L22.84 7.91358L22.84 12.23L22.839 12.23L19.14 10.0718L19.14 5.75536Z" fill="#8a8b8c" fill-rule="nonzero" opacity="1" stroke="#8a8b8c" stroke-linecap="butt" stroke-linejoin="round" stroke-width="1"/>
<path d="M15.3927 20.55L6.64405 25.65L15.3927 30.75L24.1386 25.65L15.3927 20.55ZM15.3931 23.4016L19.2505 25.6516L15.3931 27.9016L11.5322 25.6516L15.3931 23.4016Z" fill="#8a8b8c" fill-rule="nonzero" opacity="1" stroke="#8a8b8c" stroke-linecap="butt" stroke-linejoin="round" stroke-width="1"/>
</g>
</svg>
